<svg xmlns="http://www.w3.org/2000/svg" viewBox="0 0 109.48 112"><defs><style>.cls-1{fill:#f0f0f0;}.cls-1,.cls-2,.cls-3,.cls-4,.cls-5{stroke:#000;stroke-linecap:round;stroke-linejoin:round;stroke-width:3px;}.cls-2{fill:#8c43ff;}.cls-3{fill:#2ecccc;}.cls-4{fill:#aaa;}.cls-5{fill:none;}</style></defs><title>Asset 1</title><g id="Layer_2" data-name="Layer 2"><g id="Layer_1-2" data-name="Layer 1"><path class="cls-1" d="M90.5,105.5s-4-17,2-30c0,0,10,5,8-14,0,0-2-12-17-4s-63,15-63,15-3-8-10-1,3,23,3,23l6,14"/><path class="cls-1" d="M82,65c3-41-23-43-23-43S36,18,22,33s-2,41-2,41l1.5,1.5"/><path class="cls-1" d="M5.5,82.5s8-2,15,2,7,18,7,18-4,8-8,8c0,0-6-4-1-11,0,0-7,8-10,5s5-10,5-10-8,7-11,3,7-8,7-8S-3.5,87.5,5.5,82.5Z"/><path class="cls-1" d="M85.5,82.5s2-12,11-13,11,2,11,2,4,6-11,6c0,0,11-1,11,3s-11,4-11,4,10,0,9,4-9,2-9,2,9,2,7,5-11,2-11,2S84.5,97.5,85.5,82.5Z"/><path class="cls-2" d="M33.5,35.5a7.1,7.1,0,0,1-4,6"/><path class="cls-2" d="M48.5,31.5a55.27,55.27,0,0,0,9,1"/><circle cx="39.5" cy="42.5" r="4"/><circle cx="51" cy="40" r="4"/><path class="cls-3" d="M48.53,47.05s-8.3.92-6.45,9.22A8.33,8.33,0,0,0,50.38,60s6.45-.92,5.53-8.3C55.91,51.66,55,47.05,48.53,47.05Z"/><path class="cls-4" d="M42.5,71.5s-6-6,8-8,13-1,13-1,3,1,0,4S47.5,73.5,42.5,71.5Z"/><path class="cls-5" d="M66.5,29.5s1-18,13-28"/><path class="cls-5" d="M39.5,27.5s-3-17-23-21"/><path class="cls-5" d="M20.5,44.5s-8-7-19,0"/><path class="cls-5" d="M72.5,35.5s4-10,13-11"/></g></g></svg>